# xmcd CD database file
#
# Track frame offsets:
#	150
#	17275
#	37302
#	61320
#	75230
#	96785
#	112200
#	135625
#	155082
#	171922
#	193135
#	219105
#
# Disc length: 3057 seconds
#
# Revision: 0
# Processed by: cddbd v1.5PL3 Copyright (c) Steve Scherf et al.
# Submitted via: CDex 1.50beta10
#
DISCID=9f0bef0c
DTITLE=Carey Bell and Louisiana Red - Brothers In Blues
DYEAR=1993
DGENRE=Blues
TTITLE0=After A While
TTITLE1=Easy (When I Lost My Baby)
TTITLE2=Girl From Westpoint
TTITLE3=House Rent Party
TTITLE4=I Want To Sail A Ship Across The Desert
TTITLE5=Rambling Around
TTITLE6=When A Woman Gets In Trouble
TTITLE7=Country Playboy
TTITLE8=Blues With A Feeling
TTITLE9=Sweet Geneva
TTITLE10=My Friend Carey
TTITLE11=Mean Old Frisco
EXTD=YEAR: 1993
EXTT0=
EXTT1=
EXTT2=
EXTT3=
EXTT4=
EXTT5=
EXTT6=
EXTT7=
EXTT8=
EXTT9=
EXTT10=
EXTT11=
PLAYORDER=
